<?xml version="1.0" standalone="no"?>
<!DOCTYPE svg PUBLIC "-//W3C//DTD SVG 20010904//EN"
 "http://www.w3.org/TR/2001/REC-SVG-20010904/DTD/svg10.dtd">
<svg version="1.0" xmlns="http://www.w3.org/2000/svg"
 width="300.000000pt" height="300.000000pt" viewBox="0 0 300.000000 300.000000"
 preserveAspectRatio="xMidYMid meet">
<metadata>
Created by potrace 1.15, written by Peter Selinger 2001-2017
</metadata>
<g transform="translate(0.000000,300.000000) scale(0.100000,-0.100000)"
fill="#000000" stroke="none">
<path d="M761 1478 c-31 -166 -81 -445 -81 -456 0 -8 6 -12 13 -10 6 3 17 33
22 68 9 57 13 64 38 73 15 5 43 6 62 3 32 -6 34 -9 40 -61 8 -60 34 -111 34
-65 0 14 -19 131 -42 260 -34 187 -46 236 -59 238 -13 2 -19 -9 -27 -50z m48
-114 c10 -54 22 -118 26 -141 l7 -43 -55 0 c-51 0 -54 1 -51 23 2 12 13 73 24
136 11 63 20 119 20 124 0 30 12 -11 29 -99z"/>
<path d="M1110 1440 c0 -53 -2 -60 -20 -60 -11 0 -20 -4 -20 -10 0 -5 9 -10
20 -10 19 0 20 -7 20 -149 0 -174 5 -196 49 -199 22 -2 31 2 31 13 0 9 -9 15
-25 15 l-25 0 0 160 0 160 25 0 c14 0 25 5 25 10 0 6 -11 10 -25 10 -24 0 -25
3 -25 60 0 47 -3 60 -15 60 -12 0 -15 -13 -15 -60z"/>
<path d="M1820 1440 c0 -53 -2 -60 -20 -60 -11 0 -20 -4 -20 -10 0 -5 9 -10
20 -10 19 0 20 -7 20 -155 0 -142 2 -157 20 -175 23 -23 60 -27 60 -6 0 8 -10
16 -22 18 -23 3 -23 6 -26 161 l-3 157 26 0 c14 0 25 5 25 10 0 6 -11 10 -25
10 -24 0 -25 3 -25 60 0 47 -3 60 -15 60 -12 0 -15 -13 -15 -60z"/>
<path d="M1433 1380 c-12 -5 -26 -18 -32 -29 -14 -25 -14 -71 -1 -71 6 0 10 8
10 18 0 28 29 62 54 62 28 0 46 -35 46 -89 0 -33 -4 -40 -39 -59 -83 -47 -113
-119 -75 -177 19 -30 64 -34 89 -8 16 16 18 16 27 0 20 -36 28 -2 27 116 0
127 -10 212 -25 227 -15 14 -58 20 -81 10z"/>
<path d="M1623 1366 l-28 -24 0 -145 c0 -168 8 -187 76 -187 47 0 69 28 77 95
4 37 2 45 -12 45 -12 0 -16 -10 -16 -38 0 -44 -23 -82 -50 -82 -39 0 -50 36
-50 168 0 68 5 132 10 143 7 12 21 19 40 19 34 0 50 -23 50 -69 0 -21 5 -31
15 -31 35 0 7 106 -32 121 -37 14 -49 11 -80 -15z"/>
<path d="M2092 1380 c-34 -14 -42 -50 -42 -189 0 -115 2 -131 21 -155 26 -33
77 -36 105 -5 17 19 19 38 19 170 0 119 -3 151 -15 163 -20 20 -60 27 -88 16z
m75 -50 c16 -32 17 -230 1 -264 -13 -31 -40 -41 -67 -27 -14 8 -21 26 -27 67
-9 76 1 221 17 240 18 22 61 13 76 -16z"/>
<path d="M2323 1373 c-18 -9 -29 -11 -31 -4 -2 6 -10 11 -18 11 -12 0 -14 -29
-12 -182 4 -232 21 -247 28 -23 l5 159 27 16 c21 11 32 12 45 4 16 -10 18 -31
21 -178 2 -155 12 -204 28 -141 11 45 0 311 -14 328 -19 23 -47 26 -79 10z"/>
<path d="M2513 1380 c-31 -12 -46 -47 -40 -88 4 -23 23 -52 61 -92 30 -32 58
-70 62 -84 8 -32 -9 -74 -32 -83 -26 -10 -63 14 -71 47 -9 35 -29 41 -25 7 5
-40 36 -72 75 -75 51 -4 77 24 77 83 0 40 -6 51 -60 114 -49 57 -60 76 -60
105 0 30 4 37 25 42 36 9 55 -2 61 -36 8 -36 24 -40 24 -6 0 47 -53 83 -97 66z"/>
</g>
</svg>
