<?xml version="1.0" standalone="no"?>
<!DOCTYPE svg PUBLIC "-//W3C//DTD SVG 20010904//EN"
 "http://www.w3.org/TR/2001/REC-SVG-20010904/DTD/svg10.dtd">
<svg version="1.0" xmlns="http://www.w3.org/2000/svg"
 width="300.000000pt" height="250.000000pt" viewBox="0 0 300.000000 250.000000"
 preserveAspectRatio="xMidYMid meet">
<metadata>
Created by potrace 1.15, written by Peter Selinger 2001-2017
</metadata>
<g transform="translate(0.000000,250.000000) scale(0.100000,-0.100000)"
fill="#000000" stroke="none">
<path d="M41 2459 l-41 -41 0 -1168 0 -1168 41 -41 41 -41 1418 0 1418 0 41
41 41 41 0 1169 0 1169 -41 40 -41 40 -1418 0 -1418 0 -41 -41z m2127 -531
c69 -112 386 -627 405 -658 7 -11 -45 -105 -198 -360 -114 -190 -212 -351
-219 -358 -14 -15 -46 -6 -46 13 0 7 50 95 111 196 235 388 292 484 292 494 0
9 -267 446 -376 617 -40 62 -44 74 -24 81 25 11 36 6 55 -25z m-709 -9 c70
-30 105 -62 139 -127 29 -54 32 -68 32 -146 0 -100 -26 -170 -81 -223 -139
-132 -433 -97 -516 61 -60 115 -54 257 16 353 34 47 116 93 185 103 71 11 173
1 225 -21z m-154 -694 c122 -32 216 -108 270 -218 36 -75 54 -198 47 -339 l-5
-118 -423 0 -424 0 0 170 c0 93 5 193 11 222 21 98 83 194 152 237 92 57 253
76 372 46z"/>
<path d="M1242 1829 c-89 -17 -145 -72 -158 -154 -12 -83 40 -170 124 -206 58
-25 163 -25 217 0 52 23 102 81 111 127 11 58 -3 133 -31 169 -46 61 -151 86
-263 64z"/>
<path d="M1100 1116 c-30 -7 -68 -19 -85 -28 -44 -24 -102 -87 -120 -132 -18
-43 -42 -253 -32 -279 6 -16 35 -17 333 -17 l326 0 -4 118 c-4 90 -9 128 -25
163 -45 100 -126 159 -244 179 -76 12 -79 12 -149 -4z"/>
</g>
</svg>
