<?xml version="1.0" standalone="no"?>
<!DOCTYPE svg PUBLIC "-//W3C//DTD SVG 20010904//EN"
 "http://www.w3.org/TR/2001/REC-SVG-20010904/DTD/svg10.dtd">
<svg version="1.0" xmlns="http://www.w3.org/2000/svg"
 width="300.000000pt" height="300.000000pt" viewBox="0 0 300.000000 300.000000"
 preserveAspectRatio="xMidYMid meet">
<metadata>
Created by potrace 1.15, written by Peter Selinger 2001-2017
</metadata>
<g transform="translate(0.000000,300.000000) scale(0.100000,-0.100000)"
fill="#000000" stroke="none">
<path d="M980 1190 c0 -224 2 -260 15 -260 13 0 15 20 15 124 l0 125 52 3 c74
4 77 28 4 28 l-56 0 0 105 0 105 60 0 c47 0 60 3 60 15 0 12 -15 15 -75 15
l-75 0 0 -260z"/>
<path d="M1840 1360 c0 -53 -2 -60 -20 -60 -11 0 -20 -7 -20 -15 0 -8 9 -15
20 -15 19 0 20 -7 20 -159 0 -173 5 -191 56 -191 31 0 32 27 2 32 -23 3 -23 5
-23 163 0 158 0 160 23 163 30 5 28 22 -3 22 -24 0 -25 3 -25 60 0 47 -3 60
-15 60 -12 0 -15 -13 -15 -60z"/>
<path d="M1203 1292 c-24 -15 -33 -66 -33 -178 0 -134 13 -179 56 -190 15 -4
39 -3 53 2 41 15 53 68 49 210 -2 103 -6 125 -22 143 -19 21 -78 29 -103 13z
m77 -32 c18 -18 20 -33 20 -143 0 -132 -11 -167 -52 -167 -39 0 -47 27 -48
160 0 98 3 130 16 148 19 27 38 28 64 2z"/>
<path d="M1392 1118 l3 -183 27 -9 c23 -8 33 -6 58 12 24 18 30 19 30 7 0 -8
7 -15 15 -15 13 0 15 27 15 185 0 158 -2 185 -15 185 -13 0 -15 -24 -15 -155
0 -146 -1 -155 -22 -175 -27 -25 -54 -26 -68 -1 -6 11 -10 87 -10 175 0 100
-4 156 -10 156 -7 0 -10 -63 -8 -182z"/>
<path d="M1610 1115 c0 -117 4 -185 10 -185 6 0 10 58 10 155 0 153 0 155 24
171 14 8 35 14 48 12 23 -3 23 -4 26 -170 2 -140 5 -168 17 -168 13 0 15 26
15 168 -1 182 -6 202 -54 202 -15 0 -38 -7 -51 -16 -23 -15 -25 -15 -25 0 0 9
-4 16 -10 16 -6 0 -10 -68 -10 -185z"/>
<path d="M1994 1292 c-31 -20 -46 -92 -19 -92 8 0 15 9 15 20 0 20 33 60 49
60 24 0 41 -34 41 -80 0 -43 -4 -52 -27 -67 -16 -9 -43 -30 -60 -47 -29 -26
-33 -36 -33 -81 0 -80 47 -109 104 -64 21 17 26 18 26 5 0 -9 6 -16 13 -16 10
0 12 35 9 163 -5 188 -11 207 -70 207 -20 0 -42 -4 -48 -8z"/>
<path d="M2280 1115 c0 -158 2 -185 15 -185 13 0 15 24 15 153 0 139 2 156 19
171 11 10 30 16 43 14 23 -3 23 -4 26 -170 2 -140 5 -168 17 -168 13 0 15 27
15 173 0 121 -4 177 -12 185 -17 17 -68 15 -90 -5 -17 -15 -18 -15 -18 0 0 10
-7 17 -15 17 -13 0 -15 -27 -15 -185z"/>
<path d="M2507 1282 c-10 -11 -17 -36 -17 -60 0 -37 7 -49 54 -101 68 -73 79
-95 71 -132 -5 -20 -14 -31 -32 -35 -34 -9 -56 5 -68 44 -5 18 -15 32 -22 32
-17 0 -16 -13 1 -55 17 -41 49 -59 89 -51 40 8 56 32 57 87 0 41 -5 52 -60
115 -46 53 -60 76 -60 101 0 63 74 65 87 2 3 -16 9 -29 14 -29 15 0 10 54 -7
78 -20 28 -83 31 -107 4z"/>
</g>
</svg>
