<?xml version="1.0" standalone="no"?>
<!DOCTYPE svg PUBLIC "-//W3C//DTD SVG 20010904//EN"
 "http://www.w3.org/TR/2001/REC-SVG-20010904/DTD/svg10.dtd">
<svg version="1.0" xmlns="http://www.w3.org/2000/svg"
 width="300.000000pt" height="250.000000pt" viewBox="0 0 300.000000 250.000000"
 preserveAspectRatio="xMidYMid meet">
<metadata>
Created by potrace 1.15, written by Peter Selinger 2001-2017
</metadata>
<g transform="translate(0.000000,250.000000) scale(0.100000,-0.100000)"
fill="#000000" stroke="none">
<path d="M41 2459 l-41 -41 0 -1168 0 -1168 41 -41 41 -41 1418 0 1418 0 41
41 41 41 0 1169 0 1169 -41 40 -41 40 -1418 0 -1418 0 -41 -41z m2127 -531
c69 -112 386 -627 405 -658 7 -11 -45 -105 -198 -360 -114 -190 -212 -351
-219 -358 -14 -15 -46 -6 -46 13 0 7 50 95 111 196 235 388 292 484 292 494 0
9 -267 446 -376 617 -40 62 -44 74 -24 81 25 11 36 6 55 -25z m-715 -37 c104
-51 157 -139 157 -261 0 -163 -105 -273 -276 -287 -176 -15 -326 103 -341 267
-9 91 18 164 81 226 70 68 116 84 236 81 77 -2 104 -7 143 -26z m118 -688 c17
-46 39 -171 39 -227 0 -259 -159 -420 -415 -420 -210 0 -359 112 -411 309 -25
93 -10 303 23 336 14 14 95 -22 88 -39 -34 -89 -32 -250 3 -319 35 -68 77
-108 144 -138 52 -24 77 -29 143 -29 108 0 174 24 235 83 66 65 93 139 88 247
-4 110 -8 114 -122 114 -140 0 -136 2 -136 -92 l0 -79 -42 3 -43 3 -3 138 -3
137 201 0 200 0 11 -27z"/>
<path d="M1243 1800 c-100 -21 -163 -85 -163 -165 0 -122 155 -205 305 -164
25 7 58 29 89 60 l48 49 -4 60 c-4 49 -9 65 -34 91 -57 61 -151 87 -241 69z"/>
</g>
</svg>
