<?xml version="1.0" standalone="no"?>
<!DOCTYPE svg PUBLIC "-//W3C//DTD SVG 20010904//EN"
 "http://www.w3.org/TR/2001/REC-SVG-20010904/DTD/svg10.dtd">
<svg version="1.0" xmlns="http://www.w3.org/2000/svg"
 width="300.000000pt" height="300.000000pt" viewBox="0 0 300.000000 300.000000"
 preserveAspectRatio="xMidYMid meet">
<metadata>
Created by potrace 1.15, written by Peter Selinger 2001-2017
</metadata>
<g transform="translate(0.000000,300.000000) scale(0.100000,-0.100000)"
fill="#000000" stroke="none">
<path d="M1259 2995 c-3 -2 -43 -12 -88 -20 -46 -9 -91 -20 -100 -25 -9 -5
-38 -16 -66 -24 -93 -27 -264 -110 -350 -170 -322 -225 -528 -520 -632 -906
-26 -96 -26 -604 0 -700 58 -216 136 -381 251 -536 142 -190 299 -329 491
-435 94 -51 170 -85 240 -105 28 -8 57 -19 66 -24 9 -5 54 -16 100 -26 112
-22 529 -23 634 -1 124 26 204 54 355 125 336 156 645 507 763 867 55 166 67
252 67 485 0 233 -12 319 -67 485 -118 360 -425 709 -764 868 -113 52 -138 63
-214 87 -148 47 -201 54 -445 57 -130 2 -238 1 -241 -2z m1295 -1456 c15 -21
21 -744 6 -783 l-10 -26 -860 0 c-733 0 -864 2 -876 14 -12 12 -14 79 -14 397
0 360 1 383 19 398 17 14 100 16 870 16 778 0 854 -1 865 -16z"/>
<path d="M850 1145 l0 -265 25 0 25 0 0 125 0 125 70 0 70 0 0 -125 c0 -118 1
-125 20 -125 19 0 19 9 22 265 l3 265 -25 0 -25 0 3 -117 3 -118 -70 3 -71 4
0 114 0 114 -25 0 -25 0 0 -265z"/>
<path d="M2470 1141 l0 -268 25 5 25 4 0 264 0 264 -25 0 -25 0 0 -269z"/>
<path d="M1463 1375 c-5 -14 -8 -41 -12 -96 -1 -9 -11 -19 -23 -23 l-23 -6 25
-23 c25 -23 25 -26 25 -173 0 -166 6 -184 64 -184 36 0 40 6 30 45 -3 17 -7
24 -8 18 -1 -9 -7 -7 -21 4 -18 16 -20 30 -20 150 l0 133 29 0 c24 0 28 3 24
20 -3 13 -14 20 -29 20 -23 0 -24 4 -24 59 0 44 -4 60 -15 65 -9 3 -18 -1 -22
-9z"/>
<path d="M1295 1270 c-34 -13 -53 -43 -57 -92 -2 -27 0 -49 3 -50 3 -2 29 -29
57 -61 33 -38 49 -64 45 -74 -4 -11 -2 -14 6 -9 8 5 11 -2 9 -23 -3 -35 -26
-48 -58 -31 -15 8 -19 17 -15 31 4 11 2 19 -5 19 -6 0 -8 5 -4 11 4 7 -2 9
-17 7 -15 -2 -25 -12 -30 -31 -4 -16 -3 -25 2 -21 5 3 9 -2 9 -10 0 -8 11 -27
25 -41 37 -36 85 -34 119 6 14 17 26 40 26 52 0 12 3 33 6 47 4 18 3 21 -4 11
-8 -11 -11 -9 -17 8 -4 12 -31 49 -61 83 -58 65 -69 102 -33 113 24 8 59 -19
59 -47 0 -33 34 -21 46 17 6 19 7 35 3 35 -5 0 -9 9 -9 19 0 11 -5 23 -11 27
-8 4 -9 -1 -5 -17 6 -22 6 -22 -7 -7 -19 24 -58 37 -82 28z"/>
<path d="M1613 1255 c-12 -9 -25 -30 -27 -48 -9 -53 -12 -285 -3 -280 4 2 7
-2 7 -10 0 -24 35 -47 73 -47 43 0 74 28 82 74 8 51 11 275 3 263 -5 -8 -8 -5
-8 7 0 47 -81 73 -127 41z m90 -86 c14 -75 4 -205 -18 -229 -18 -19 -20 -20
-31 -5 -9 12 -13 13 -17 3 -6 -18 -9 18 -11 142 -1 126 4 142 41 137 24 -3 29
-10 36 -48z"/>
<path d="M1848 1263 l-48 -4 0 -190 c0 -182 1 -189 20 -189 19 0 20 7 20 149
0 147 0 149 25 165 13 9 31 16 39 16 8 0 16 6 19 13 6 19 -4 47 -17 45 -6 -1
-32 -3 -58 -5z"/>
<path d="M1973 1263 c-23 -4 -23 -5 -23 -194 l0 -189 25 0 24 0 3 195 c2 107
1 194 -2 194 -3 -1 -15 -4 -27 -6z"/>
<path d="M2076 1251 c-24 -27 -38 -140 -31 -243 6 -75 11 -91 32 -113 28 -28
77 -33 105 -11 24 18 38 59 38 111 0 42 -1 44 -22 36 -17 -6 -24 -19 -28 -47
-9 -63 -32 -82 -60 -49 -13 15 -2 21 16 8 5 -5 2 -1 -8 8 -34 32 -36 258 -3
245 8 -3 17 0 21 6 4 7 3 8 -4 4 -7 -4 -12 -2 -12 3 0 6 9 11 21 11 11 0 17
-4 14 -10 -3 -5 -2 -10 4 -10 5 0 11 -16 13 -36 2 -28 9 -39 26 -45 22 -9 23
-8 20 61 -1 38 -4 67 -6 65 -3 -2 -14 2 -26 10 -30 21 -89 19 -110 -4z"/>
<path d="M2281 1244 c-12 -15 -21 -29 -21 -33 -1 -3 -5 -26 -10 -51 -7 -37 -6
-42 5 -27 6 9 19 17 27 17 8 0 19 14 24 33 8 25 15 32 34 32 18 0 26 -6 27
-20 2 -11 5 -33 9 -50 5 -27 1 -32 -31 -49 -20 -11 -50 -35 -66 -53 -37 -43
-42 -120 -8 -154 18 -18 28 -20 84 -14 l65 7 2 167 c3 163 3 166 -21 194 -34
38 -91 38 -120 1z"/>
<path d="M1138 1067 l-3 -193 28 4 27 4 0 189 0 189 -25 0 -24 0 -3 -193z"/>
</g>
</svg>
