<?xml version="1.0" standalone="no"?>
<!DOCTYPE svg PUBLIC "-//W3C//DTD SVG 20010904//EN"
 "http://www.w3.org/TR/2001/REC-SVG-20010904/DTD/svg10.dtd">
<svg version="1.0" xmlns="http://www.w3.org/2000/svg"
 width="300.000000pt" height="300.000000pt" viewBox="0 0 300.000000 300.000000"
 preserveAspectRatio="xMidYMid meet">
<metadata>
Created by potrace 1.15, written by Peter Selinger 2001-2017
</metadata>
<g transform="translate(0.000000,300.000000) scale(0.100000,-0.100000)"
fill="#000000" stroke="none">
<path d="M836 1478 c-3 -7 -7 -124 -10 -260 -5 -203 -3 -248 8 -248 13 0 24
139 27 325 1 87 7 71 50 -146 17 -86 35 -162 39 -169 12 -20 27 -3 34 37 11
59 67 317 70 321 6 5 16 -165 16 -265 0 -89 2 -103 17 -103 15 0 16 15 10 158
-4 86 -7 203 -7 260 0 92 -2 103 -17 100 -19 -4 -26 -28 -74 -265 -18 -90 -35
-163 -38 -163 -4 0 -23 87 -45 193 -21 105 -40 202 -43 215 -6 23 -31 30 -37
10z"/>
<path d="M1406 1329 c-21 -16 -26 -29 -26 -63 0 -39 6 -51 56 -106 30 -34 60
-73 65 -87 12 -33 -9 -77 -38 -81 -28 -4 -63 31 -63 64 0 16 -5 24 -12 21 -23
-8 -12 -70 17 -94 57 -49 125 -10 125 71 0 41 -6 51 -60 113 -63 72 -77 116
-45 143 24 20 62 -2 70 -39 9 -40 25 -40 25 -1 0 35 -38 80 -68 80 -11 0 -31
-9 -46 -21z"/>
<path d="M1603 1326 l-28 -24 0 -147 0 -147 28 -24 c36 -31 71 -31 102 1 29
29 36 105 10 105 -10 0 -15 -10 -15 -33 0 -36 -25 -67 -54 -67 -24 0 -46 58
-46 120 l0 50 65 0 65 0 0 69 c0 58 -3 72 -25 95 -30 33 -65 33 -102 2z"/>
<path d="M2060 1333 c-17 -12 -25 -13 -28 -5 -2 7 -10 12 -18 12 -12 0 -14
-32 -14 -185 0 -156 2 -185 15 -185 12 0 15 26 17 156 l3 157 28 21 c21 16 32
18 45 10 15 -10 17 -33 20 -178 2 -138 5 -166 17 -166 13 0 15 25 15 159 0
158 0 159 25 175 64 42 75 15 75 -178 0 -132 2 -156 15 -156 13 0 15 25 15
164 0 150 -2 165 -21 190 -24 31 -44 33 -83 7 -28 -18 -29 -18 -47 0 -23 23
-47 24 -79 2z"/>
<path d="M2366 1329 c-19 -15 -26 -30 -26 -55 0 -45 12 -68 71 -130 57 -61 68
-94 45 -129 -29 -44 -71 -26 -96 39 -8 21 -14 26 -21 19 -16 -16 7 -79 34 -98
71 -50 155 43 112 124 -9 18 -38 57 -66 87 -41 45 -50 61 -47 86 6 63 64 63
83 0 12 -42 25 -41 25 1 0 40 -31 77 -64 77 -13 0 -35 -9 -50 -21z"/>
<path d="M1160 1180 c0 -96 4 -169 11 -184 16 -35 56 -42 91 -16 23 17 28 18
28 5 0 -8 7 -15 15 -15 13 0 15 27 15 185 0 158 -2 185 -15 185 -13 0 -15 -24
-15 -154 l0 -155 -26 -20 c-30 -24 -33 -24 -54 -11 -12 7 -16 41 -18 175 -3
135 -6 165 -18 165 -12 0 -14 -28 -14 -160z"/>
<path d="M1780 1180 c0 -100 4 -169 12 -185 16 -36 53 -43 89 -16 23 17 29 19
29 6 0 -8 7 -15 15 -15 13 0 15 27 15 185 0 158 -2 185 -15 185 -13 0 -15 -24
-15 -154 l0 -155 -26 -20 c-30 -24 -33 -24 -54 -11 -12 7 -16 41 -18 175 -3
135 -6 165 -18 165 -12 0 -14 -28 -14 -160z"/>
</g>
</svg>
