<?xml version="1.0" standalone="no"?>
<!DOCTYPE svg PUBLIC "-//W3C//DTD SVG 20010904//EN"
 "http://www.w3.org/TR/2001/REC-SVG-20010904/DTD/svg10.dtd">
<svg version="1.0" xmlns="http://www.w3.org/2000/svg"
 width="300.000000pt" height="300.000000pt" viewBox="0 0 300.000000 300.000000"
 preserveAspectRatio="xMidYMid meet">
<metadata>
Created by potrace 1.15, written by Peter Selinger 2001-2017
</metadata>
<g transform="translate(0.000000,300.000000) scale(0.100000,-0.100000)"
fill="#000000" stroke="none">
<path d="M1275 2990 c-482 -75 -904 -382 -1120 -815 -59 -119 -102 -241 -131
-375 -15 -68 -19 -127 -19 -300 0 -173 4 -232 19 -300 66 -301 205 -558 416
-766 211 -210 462 -345 760 -410 68 -15 127 -19 300 -19 173 0 232 4 300 19
298 65 549 200 760 410 211 208 350 465 416 766 27 122 27 478 0 600 -65 298
-200 549 -409 760 -203 206 -453 343 -746 412 -99 23 -441 34 -546 18z m1455
-1825 l0 -395 -1105 0 -1105 0 0 395 0 395 1105 0 1105 0 0 -395z"/>
<path d="M580 1230 c0 -235 2 -271 15 -277 9 -3 19 -2 23 2 4 3 8 62 10 130
l4 123 69 4 c62 3 73 7 101 35 25 26 32 42 36 86 10 125 -32 167 -170 167
l-88 0 0 -270z m193 212 c36 -39 33 -136 -4 -173 -14 -14 -33 -19 -79 -19
l-60 0 0 105 0 105 63 0 c49 0 68 -4 80 -18z"/>
<path d="M973 1330 c-27 -16 -33 -17 -33 -5 0 8 -9 15 -20 15 -19 0 -20 -7
-20 -195 0 -188 1 -195 20 -195 19 0 20 7 20 160 l0 160 33 20 c17 11 40 20
50 20 10 0 17 8 17 20 0 26 -25 26 -67 0z"/>
<path d="M1106 1325 c-30 -32 -36 -64 -36 -179 0 -153 23 -196 105 -196 32 0
47 6 66 26 23 25 24 31 24 176 l0 150 -28 24 c-39 34 -100 33 -131 -1z m108
-27 c23 -32 23 -264 0 -296 -20 -28 -69 -30 -84 -3 -5 11 -10 80 -10 155 0
109 3 138 16 150 22 23 60 20 78 -6z"/>
<path d="M1382 1334 c-53 -37 -69 -137 -33 -208 19 -37 19 -38 0 -57 -23 -23
-24 -47 -3 -70 14 -15 13 -19 -10 -44 -34 -37 -35 -88 -2 -110 33 -22 116 -30
160 -15 44 14 66 43 66 86 0 43 -35 70 -110 85 -79 15 -87 21 -72 53 10 23 18
26 61 26 42 0 53 4 74 30 31 36 41 78 32 136 -6 40 -4 45 19 56 29 13 35 38 9
38 -9 0 -24 -7 -34 -16 -16 -15 -20 -14 -40 5 -27 25 -85 28 -117 5z m97 -33
c37 -37 40 -134 4 -173 -19 -22 -61 -23 -88 -3 -14 12 -20 31 -23 79 -4 59 -2
67 21 90 31 31 60 33 86 7z m21 -351 c13 -7 20 -21 20 -41 0 -35 -27 -49 -94
-49 -73 0 -102 42 -58 85 23 24 32 26 70 21 23 -3 52 -10 62 -16z"/>
<path d="M1703 1330 c-27 -16 -33 -17 -33 -5 0 25 -39 18 -46 -8 -8 -32 -1
-354 8 -362 4 -4 14 -5 23 -2 13 5 15 31 15 160 0 171 3 180 68 193 22 5 32
12 32 25 0 25 -26 24 -67 -1z"/>
<path d="M1836 1328 c-13 -13 -27 -38 -31 -55 -6 -29 -4 -33 13 -33 14 0 24
10 32 34 6 19 18 37 26 40 47 18 74 -9 74 -75 0 -47 -2 -49 -40 -69 -22 -11
-55 -34 -75 -51 -31 -28 -35 -37 -35 -80 0 -36 5 -54 20 -69 26 -26 80 -26
114 1 l26 20 0 -20 c0 -28 26 -27 34 2 9 35 7 216 -4 282 -11 71 -34 95 -91
95 -25 0 -46 -7 -63 -22z"/>
<path d="M2128 1334 c-16 -8 -28 -10 -28 -4 0 5 -9 10 -20 10 -19 0 -20 -7
-20 -195 0 -188 1 -195 20 -195 19 0 20 7 20 164 l0 165 27 21 c15 12 38 20
52 18 l26 -3 5 -180 c4 -155 7 -180 21 -183 24 -4 29 26 29 190 l0 147 30 16
c72 37 80 17 80 -189 0 -159 1 -166 20 -166 19 0 20 7 20 174 0 160 -2 175
-21 200 -25 32 -75 35 -111 6 -25 -19 -26 -19 -43 0 -22 24 -68 26 -107 4z"/>
<path d="M2495 1325 c-30 -29 -33 -79 -7 -115 9 -14 43 -50 75 -81 49 -48 57
-61 57 -92 0 -38 -19 -57 -59 -57 -29 0 -61 35 -61 66 0 19 -4 25 -17 22 -27
-6 -19 -56 13 -90 22 -22 36 -28 71 -28 57 0 93 33 93 85 0 50 -13 71 -86 140
-53 50 -64 66 -64 93 0 25 6 35 26 44 32 15 54 3 73 -40 20 -44 46 -43 37 0
-15 76 -99 105 -151 53z"/>
</g>
</svg>
