<?xml version="1.0" standalone="no"?>
<!DOCTYPE svg PUBLIC "-//W3C//DTD SVG 20010904//EN"
 "http://www.w3.org/TR/2001/REC-SVG-20010904/DTD/svg10.dtd">
<svg version="1.0" xmlns="http://www.w3.org/2000/svg"
 width="300.000000pt" height="300.000000pt" viewBox="0 0 300.000000 300.000000"
 preserveAspectRatio="xMidYMid meet">
<metadata>
Created by potrace 1.15, written by Peter Selinger 2001-2017
</metadata>
<g transform="translate(0.000000,300.000000) scale(0.100000,-0.100000)"
fill="#000000" stroke="none">
<path d="M780 1190 c0 -222 2 -260 15 -260 12 0 15 23 17 123 l3 122 45 3 c80
4 90 10 112 59 30 68 21 148 -22 186 -27 24 -38 27 -100 27 l-70 0 0 -260z
m156 209 c14 -16 19 -36 19 -85 0 -81 -20 -105 -94 -112 l-51 -5 0 112 0 111
53 0 c42 0 58 -5 73 -21z"/>
<path d="M1250 1191 l0 -261 28 0 c15 1 38 -2 52 -5 63 -16 97 75 87 231 -6
105 -21 138 -65 142 -18 2 -40 -2 -47 -8 -12 -10 -15 2 -17 72 -3 69 -6 83
-20 86 -17 3 -18 -14 -18 -257z m120 70 c13 -26 13 -266 0 -292 -12 -21 -50
-25 -68 -7 -8 8 -12 55 -12 147 0 111 3 138 17 153 21 24 50 23 63 -1z"/>
<path d="M1480 1191 c0 -227 2 -261 15 -261 13 0 15 33 13 257 -2 194 -6 257
-15 261 -10 3 -13 -53 -13 -257z"/>
<path d="M2066 1438 c-3 -7 -12 -53 -20 -103 -9 -49 -25 -139 -36 -200 -33
-188 -34 -205 -18 -205 11 0 17 19 24 68 l9 67 57 3 c63 3 62 5 73 -85 5 -38
11 -53 22 -53 19 0 19 -4 -35 300 -31 174 -42 216 -55 218 -10 2 -19 -2 -21
-10z m49 -208 l22 -130 -54 0 c-50 0 -53 1 -49 23 3 12 10 51 16 87 19 109 32
161 38 156 3 -3 15 -64 27 -136z"/>
<path d="M2420 1360 c0 -53 -2 -60 -19 -60 -30 0 -35 -19 -6 -26 l25 -6 0
-159 c0 -148 1 -159 21 -172 20 -15 59 -12 59 3 0 5 -10 10 -22 12 -23 3 -23
5 -23 163 0 158 0 160 23 163 30 5 28 22 -3 22 -24 0 -25 3 -25 60 0 47 -3 60
-15 60 -12 0 -15 -13 -15 -60z"/>
<path d="M1030 1140 c0 -156 6 -193 34 -213 15 -10 57 1 79 20 15 15 17 15 17
0 0 -10 7 -17 15 -17 13 0 15 27 15 185 0 158 -2 185 -15 185 -13 0 -15 -24
-15 -153 0 -149 -1 -154 -24 -176 -13 -13 -32 -21 -43 -19 -16 3 -18 18 -23
173 -4 151 -7 170 -22 173 -17 3 -18 -10 -18 -158z"/>
<path d="M1693 1273 c-22 -33 -31 -226 -14 -290 20 -74 108 -85 137 -18 19 46
19 105 -1 105 -11 0 -15 -11 -15 -41 0 -53 -15 -79 -45 -79 -44 0 -55 32 -55
165 0 93 4 126 16 143 31 45 84 11 84 -55 0 -23 5 -33 15 -33 28 0 12 103 -18
122 -7 4 -29 8 -49 8 -30 0 -41 -6 -55 -27z"/>
</g>
</svg>
