<?xml version="1.0" standalone="no"?>
<!DOCTYPE svg PUBLIC "-//W3C//DTD SVG 20010904//EN"
 "http://www.w3.org/TR/2001/REC-SVG-20010904/DTD/svg10.dtd">
<svg version="1.0" xmlns="http://www.w3.org/2000/svg"
 width="300.000000pt" height="300.000000pt" viewBox="0 0 300.000000 300.000000"
 preserveAspectRatio="xMidYMid meet">
<metadata>
Created by potrace 1.15, written by Peter Selinger 2001-2017
</metadata>
<g transform="translate(0.000000,300.000000) scale(0.100000,-0.100000)"
fill="#000000" stroke="none">
<path d="M1238 2995 c-2 -3 -40 -12 -84 -21 -43 -9 -83 -20 -88 -25 -6 -5 -16
-9 -23 -9 -18 0 -176 -63 -233 -93 -74 -38 -218 -131 -259 -166 -205 -178
-310 -309 -414 -517 -76 -153 -138 -372 -136 -483 l1 -66 13 85 c66 434 296
802 652 1041 185 124 421 218 628 249 l50 8 -51 1 c-28 0 -53 -1 -56 -4z"/>
<path d="M1012 1478 c3 -7 23 -14 46 -16 l42 -3 0 -245 c0 -237 1 -244 20
-244 19 0 20 7 20 245 l0 245 40 0 c29 0 40 4 40 15 0 12 -18 15 -106 15 -80
0 -105 -3 -102 -12z"/>
<path d="M1260 1230 c0 -253 1 -260 20 -260 19 0 20 7 20 158 l0 158 28 16
c19 12 32 14 45 7 15 -9 17 -29 17 -174 0 -140 2 -165 15 -165 23 0 22 325 -1
358 -18 26 -34 27 -74 7 l-30 -16 0 86 c0 78 -2 85 -20 85 -19 0 -20 -7 -20
-260z"/>
<path d="M1918 1403 c-3 -51 -6 -58 -25 -61 -13 -2 -23 -7 -23 -12 0 -5 10
-10 23 -12 22 -3 22 -6 25 -163 3 -172 10 -195 59 -195 31 0 32 37 1 42 -23 3
-23 5 -23 158 0 153 0 155 23 158 30 5 28 22 -3 22 -24 0 -25 3 -25 60 0 46
-3 60 -15 60 -10 0 -15 -15 -17 -57z"/>
<path d="M4 1305 c3 -117 53 -292 124 -439 124 -257 301 -461 540 -624 48 -33
211 -117 242 -126 14 -4 -25 19 -85 51 -206 109 -360 234 -491 396 -174 217
-275 449 -319 737 l-14 85 3 -80z"/>
<path d="M1505 1325 c-24 -23 -25 -29 -25 -168 0 -131 2 -147 21 -171 42 -54
121 -24 135 51 10 55 -19 93 -31 38 -3 -14 -7 -36 -10 -49 -6 -31 -42 -44 -63
-23 -16 17 -34 119 -25 143 4 10 24 14 71 14 l65 0 -6 71 c-5 55 -11 77 -28
95 -30 32 -73 31 -104 -1z"/>
<path d="M1715 1325 c-29 -28 -35 -85 -10 -85 9 0 15 9 15 23 0 24 28 57 48
57 20 0 42 -44 42 -85 0 -37 -4 -42 -46 -69 -80 -51 -106 -125 -63 -180 24
-30 60 -34 85 -9 13 13 19 14 22 5 2 -6 10 -12 18 -12 13 0 15 25 12 171 -3
166 -4 171 -27 190 -32 26 -67 24 -96 -6z"/>
<path d="M2071 1333 c-55 -45 -48 -333 9 -363 29 -15 65 -12 90 8 30 24 42
122 16 122 -12 0 -16 -9 -16 -35 0 -22 -8 -43 -21 -56 -43 -43 -79 -1 -79 94
l0 57 65 0 65 0 0 54 c0 64 -16 113 -40 126 -28 15 -65 12 -89 -7z"/>
<path d="M2426 1319 c-43 -50 -35 -79 46 -167 51 -57 64 -87 54 -126 -13 -53
-91 -35 -98 21 -4 36 -22 36 -26 0 -4 -35 45 -87 83 -87 42 0 75 41 75 93 0
39 -6 51 -56 108 -69 79 -80 104 -59 135 25 39 59 29 75 -22 16 -47 34 -44 27
4 -12 72 -76 94 -121 41z"/>
</g>
</svg>
