<?xml version="1.0" encoding="UTF-8" standalone="no"?><!-- Generator: Gravit.io --><svg xmlns="http://www.w3.org/2000/svg" xmlns:xlink="http://www.w3.org/1999/xlink" style="isolation:isolate" viewBox="586.853 62.488 306.685 521.17" width="306.685pt" height="521.17pt"><defs><clipPath id="_clipPath_zyMtcjG3krHZ7GFvBQqbG9rfeqd1UnjL"><rect x="586.853" y="62.488" width="306.685" height="521.17"/></clipPath></defs><g clip-path="url(#_clipPath_zyMtcjG3krHZ7GFvBQqbG9rfeqd1UnjL)"><g><linearGradient id="_lgradient_2" x1="0" y1="0.5" x2="1" y2="0.5" gradientTransform="matrix(261.765,0,0,261.765,607.614,102.294)" gradientUnits="userSpaceOnUse"><stop offset="0%" stop-opacity="1" style="stop-color:rgb(157,161,85)"/><stop offset="98.25574317861677%" stop-opacity="1" style="stop-color:rgb(182,185,122)"/></linearGradient><circle vector-effect="non-scaling-stroke" cx="738.4963107256908" cy="233.17630879965472" r="130.88235294117646" fill="url(#_lgradient_2)"/></g><g><g><g><g><g><g><g><path d=" M 760.146 569.569 C 756.961 578.03 748.891 583.618 739.873 583.658 C 730.845 583.687 722.726 578.157 719.483 569.745 C 675.449 455.424 586.853 308.54 586.853 238.781 C 586.852 154.239 655.624 85.438 740.205 85.438 C 824.746 85.438 893.538 154.239 893.538 238.781 C 893.547 308.745 803.642 454.017 760.146 569.569 Z  M 740.205 114.602 C 673.885 114.602 619.944 168.543 619.944 234.834 C 619.944 301.164 673.885 355.134 740.205 355.134 C 806.505 355.134 860.446 301.183 860.446 234.834 C 860.436 168.543 806.505 114.602 740.205 114.602 Z " fill="rgb(1,0,2)"/></g></g></g></g></g></g></g></g></svg>