<?xml version="1.0" encoding="UTF-8" standalone="no"?><!-- Generator: Gravit.io --><svg xmlns="http://www.w3.org/2000/svg" xmlns:xlink="http://www.w3.org/1999/xlink" style="isolation:isolate" viewBox="582.43 63.445 306.685 521.17" width="306.685pt" height="521.17pt"><defs><clipPath id="_clipPath_3yF3srTkaNC8lAAPjSWqBqaUZC9YQKU3"><rect x="582.43" y="63.445" width="306.685" height="521.17"/></clipPath></defs><g clip-path="url(#_clipPath_3yF3srTkaNC8lAAPjSWqBqaUZC9YQKU3)"><g><linearGradient id="_lgradient_0" x1="0" y1="0.5" x2="1" y2="0.5" gradientTransform="matrix(261.765,0,0,261.765,600.429,99.068)" gradientUnits="userSpaceOnUse"><stop offset="0%" stop-opacity="1" style="stop-color:rgb(217,130,181)"/><stop offset="97.82098325304767%" stop-opacity="1" style="stop-color:rgb(217,130,181)"/></linearGradient><circle vector-effect="non-scaling-stroke" cx="731.3115294117646" cy="229.95017647058822" r="130.88235294117646" fill="url(#_lgradient_0)"/></g><g><g><g><g><g><g><path d=" M 755.723 570.526 C 752.538 578.987 744.468 584.575 735.45 584.615 C 726.422 584.644 718.303 579.114 715.06 570.702 C 671.026 456.381 582.43 309.497 582.43 239.738 C 582.429 155.196 651.201 86.395 735.782 86.395 C 820.323 86.395 889.115 155.196 889.115 239.738 C 889.124 309.702 799.219 454.974 755.723 570.526 Z  M 735.782 115.559 C 669.462 115.559 615.521 169.5 615.521 235.791 C 615.521 302.121 669.462 356.091 735.782 356.091 C 802.082 356.091 856.023 302.14 856.023 235.791 C 856.013 169.5 802.082 115.559 735.782 115.559 Z " fill="rgb(1,0,2)"/></g></g></g></g></g></g></g></svg>