<?xml version="1.0" encoding="UTF-8" standalone="no"?><!-- Generator: Gravit.io --><svg xmlns="http://www.w3.org/2000/svg" xmlns:xlink="http://www.w3.org/1999/xlink" style="isolation:isolate" viewBox="565.533 62.488 306.685 521.17" width="306.685pt" height="521.17pt"><defs><clipPath id="_clipPath_XcMQaO9sia8yJNYF5ZTRexU4j8GuEWg2"><rect x="565.533" y="62.488" width="306.685" height="521.17"/></clipPath></defs><g clip-path="url(#_clipPath_XcMQaO9sia8yJNYF5ZTRexU4j8GuEWg2)"><g><linearGradient id="_lgradient_4" x1="0" y1="0.5" x2="1" y2="0.5" gradientTransform="matrix(261.765,0,0,261.765,592.807,99.65)" gradientUnits="userSpaceOnUse"><stop offset="3.0433194789837055%" stop-opacity="1" style="stop-color:rgb(88,88,90)"/><stop offset="96.51670347634035%" stop-opacity="1" style="stop-color:rgb(110,110,113)"/></linearGradient><circle vector-effect="non-scaling-stroke" cx="723.6898340495693" cy="230.53229510749014" r="130.88235294117646" fill="url(#_lgradient_4)"/></g><g><g><g><g><g><g><g><path d=" M 738.826 569.569 C 735.641 578.03 727.571 583.618 718.553 583.658 C 709.525 583.687 701.406 578.157 698.163 569.745 C 654.129 455.424 565.533 308.54 565.533 238.781 C 565.532 154.239 634.304 85.438 718.885 85.438 C 803.426 85.438 872.218 154.239 872.218 238.781 C 872.227 308.745 782.322 454.017 738.826 569.569 Z  M 718.885 114.602 C 652.565 114.602 598.624 168.543 598.624 234.834 C 598.624 301.164 652.565 355.134 718.885 355.134 C 785.185 355.134 839.126 301.183 839.126 234.834 C 839.116 168.543 785.185 114.602 718.885 114.602 Z " fill="rgb(120,20,39)"/></g></g></g></g></g></g></g></g></svg>