<?xml version="1.0" encoding="UTF-8" standalone="no"?><!-- Generator: Gravit.io --><svg xmlns="http://www.w3.org/2000/svg" xmlns:xlink="http://www.w3.org/1999/xlink" style="isolation:isolate" viewBox="565.533 72.082 306.685 521.17" width="306.685pt" height="521.17pt"><defs><clipPath id="_clipPath_v29FdfnXESdGHTeRVR1oeBlZuOZ6sCuC"><rect x="565.533" y="72.082" width="306.685" height="521.17"/></clipPath></defs><g clip-path="url(#_clipPath_v29FdfnXESdGHTeRVR1oeBlZuOZ6sCuC)"><g><linearGradient id="_lgradient_3" x1="0" y1="0.5" x2="1" y2="0.5" gradientTransform="matrix(261.765,0,0,261.765,585.933,103.88)" gradientUnits="userSpaceOnUse"><stop offset="0%" stop-opacity="1" style="stop-color:rgb(50,192,196)"/><stop offset="97.38622332747858%" stop-opacity="1" style="stop-color:rgb(94,211,214)"/></linearGradient><circle vector-effect="non-scaling-stroke" cx="716.8153984499415" cy="234.7627170149534" r="130.88235294117646" fill="url(#_lgradient_3)"/></g><g><g><g><g><g><g><g><path d=" M 738.826 579.163 C 735.641 587.624 727.571 593.212 718.553 593.252 C 709.525 593.281 701.406 587.751 698.163 579.339 C 654.129 465.018 565.533 318.134 565.533 248.375 C 565.532 163.833 634.304 95.032 718.885 95.032 C 803.426 95.032 872.218 163.833 872.218 248.375 C 872.227 318.339 782.322 463.611 738.826 579.163 Z  M 718.885 124.196 C 652.565 124.196 598.624 178.137 598.624 244.428 C 598.624 310.758 652.565 364.728 718.885 364.728 C 785.185 364.728 839.126 310.777 839.126 244.428 C 839.116 178.137 785.185 124.196 718.885 124.196 Z " fill="rgb(1,0,2)"/></g></g></g></g></g></g></g></g></svg>