<?xml version="1.0" encoding="UTF-8" standalone="no"?><!-- Generator: Gravit.io --><svg xmlns="http://www.w3.org/2000/svg" xmlns:xlink="http://www.w3.org/1999/xlink" style="isolation:isolate" viewBox="591.117 83.808 307.751 505.18" width="307.751pt" height="505.18pt"><defs><clipPath id="_clipPath_ODekjAxbpZIgfZLOjChmT3c3cBWKqvME"><rect x="591.117" y="83.808" width="307.751" height="505.18"/></clipPath></defs><g clip-path="url(#_clipPath_ODekjAxbpZIgfZLOjChmT3c3cBWKqvME)"><g><linearGradient id="_lgradient_5" x1="0" y1="0.5" x2="1" y2="0.5" gradientTransform="matrix(261.765,0,0,261.765,603.688,112.735)" gradientUnits="userSpaceOnUse"><stop offset="0%" stop-opacity="1" style="stop-color:rgb(255,149,5)"/><stop offset="98.69050310418586%" stop-opacity="1" style="stop-color:rgb(255,177,70)"/></linearGradient><circle vector-effect="non-scaling-stroke" cx="734.5700069098804" cy="243.6168631758779" r="130.88235294117646" fill="url(#_lgradient_5)"/></g><g><g><g><g><g><g><g><path d=" M 764.41 574.899 C 761.225 583.36 753.155 588.948 744.137 588.988 C 735.109 589.017 726.99 583.487 723.747 575.075 C 679.713 460.754 591.117 313.87 591.117 244.111 C 591.116 159.569 659.888 90.768 744.469 90.768 C 829.01 90.768 897.802 159.569 897.802 244.111 C 897.811 314.075 807.906 459.347 764.41 574.899 Z  M 744.469 119.932 C 678.149 119.932 624.208 173.873 624.208 240.164 C 624.208 306.494 678.149 360.464 744.469 360.464 C 810.769 360.464 864.71 306.513 864.71 240.164 C 864.7 173.873 810.769 119.932 744.469 119.932 Z " fill="rgb(1,0,2)"/></g></g></g></g></g></g></g></g></svg>