<?xml version="1.0" encoding="UTF-8" standalone="no"?><!-- Generator: Gravit.io --><svg xmlns="http://www.w3.org/2000/svg" xmlns:xlink="http://www.w3.org/1999/xlink" style="isolation:isolate" viewBox="578.325 67.818 306.685 521.17" width="306.685pt" height="521.17pt"><defs><clipPath id="_clipPath_fWgXuh4XJIbxMvIRDr7HPvkSk0kJAuuk"><rect x="578.325" y="67.818" width="306.685" height="521.17"/></clipPath></defs><g clip-path="url(#_clipPath_fWgXuh4XJIbxMvIRDr7HPvkSk0kJAuuk)"><g><linearGradient id="_lgradient_1" x1="0" y1="0.5" x2="1" y2="0.5" gradientTransform="matrix(261.765,0,0,261.765,605.499,103.88)" gradientUnits="userSpaceOnUse"><stop offset="0%" stop-opacity="1" style="stop-color:rgb(255,255,1)"/><stop offset="98.25574317861677%" stop-opacity="1" style="stop-color:rgb(255,255,65)"/></linearGradient><circle vector-effect="non-scaling-stroke" cx="736.3810997719592" cy="234.76271701495335" r="130.88235294117646" fill="url(#_lgradient_1)"/></g><g><g><g><g><g><g><g><path d=" M 751.618 574.899 C 748.433 583.36 740.363 588.948 731.345 588.988 C 722.317 589.017 714.198 583.487 710.955 575.075 C 666.921 460.754 578.325 313.87 578.325 244.111 C 578.324 159.569 647.096 90.768 731.677 90.768 C 816.218 90.768 885.01 159.569 885.01 244.111 C 885.019 314.075 795.114 459.347 751.618 574.899 Z  M 731.677 119.932 C 665.357 119.932 611.416 173.873 611.416 240.164 C 611.416 306.494 665.357 360.464 731.677 360.464 C 797.977 360.464 851.918 306.513 851.918 240.164 C 851.908 173.873 797.977 119.932 731.677 119.932 Z " fill="rgb(1,0,2)"/></g></g></g></g></g></g></g></g></svg>